<svg width="24" height="24" viewBox="0 0 24 24" fill="none" xmlns="http://www.w3.org/2000/svg">
<path d="M9.00039 2.39999C9.15952 2.39999 9.31213 2.46321 9.42466 2.57573C9.53718 2.68825 9.60039 2.84086 9.60039 2.99999V5.39999C9.60039 5.55912 9.53718 5.71174 9.42466 5.82426C9.31213 5.93678 9.15952 5.99999 9.00039 5.99999C8.84126 5.99999 8.68865 5.93678 8.57613 5.82426C8.46361 5.71174 8.40039 5.55912 8.40039 5.39999V2.99999C8.40039 2.84086 8.46361 2.68825 8.57613 2.57573C8.68865 2.46321 8.84126 2.39999 9.00039 2.39999ZM4.33239 4.33199C4.38813 4.27612 4.45434 4.23179 4.52723 4.20154C4.60012 4.17129 4.67827 4.15572 4.75719 4.15572C4.83611 4.15572 4.91426 4.17129 4.98715 4.20154C5.06005 4.23179 5.12626 4.27612 5.18199 4.33199L6.87879 6.02999C6.9361 6.08534 6.98181 6.15155 7.01325 6.22475C7.0447 6.29795 7.06125 6.37669 7.06194 6.45635C7.06263 6.53602 7.04745 6.61503 7.01728 6.68877C6.98712 6.7625 6.94256 6.8295 6.88623 6.88583C6.82989 6.94217 6.7629 6.98672 6.68916 7.01689C6.61543 7.04706 6.53642 7.06224 6.45675 7.06154C6.37708 7.06085 6.29835 7.0443 6.22515 7.01286C6.15195 6.98141 6.08574 6.9357 6.03039 6.87839L4.33359 5.18159C4.22111 5.06908 4.15792 4.91649 4.15792 4.75739C4.15792 4.5983 4.22111 4.44571 4.33359 4.33319L4.33239 4.33199ZM13.6684 4.33199C13.7243 4.38773 13.7686 4.45394 13.7988 4.52683C13.8291 4.59973 13.8447 4.67787 13.8447 4.75679C13.8447 4.83571 13.8291 4.91386 13.7988 4.98675C13.7686 5.05965 13.7243 5.12586 13.6684 5.18159L11.9692 6.87839C11.9138 6.9357 11.8476 6.98141 11.7744 7.01286C11.7012 7.0443 11.6225 7.06085 11.5428 7.06154C11.4632 7.06224 11.3842 7.04706 11.3104 7.01689C11.2367 6.98672 11.1697 6.94217 11.1134 6.88583C11.057 6.8295 11.0125 6.7625 10.9823 6.68877C10.9521 6.61503 10.9369 6.53602 10.9376 6.45635C10.9383 6.37669 10.9549 6.29795 10.9863 6.22475C11.0178 6.15155 11.0635 6.08534 11.1208 6.02999L12.8176 4.33319C12.9301 4.22071 13.0827 4.15752 13.2418 4.15752C13.4009 4.15752 13.5535 4.22071 13.666 4.33319L13.6684 4.33199ZM2.40039 8.99999C2.40039 8.84086 2.4636 8.68825 2.57613 8.57573C2.68865 8.46321 2.84126 8.39999 3.00039 8.39999H5.40039C5.55952 8.39999 5.71213 8.46321 5.82466 8.57573C5.93718 8.68825 6.00039 8.84086 6.00039 8.99999C6.00039 9.15912 5.93718 9.31174 5.82466 9.42426C5.71213 9.53678 5.55952 9.59999 5.40039 9.59999H3.00039C2.84126 9.59999 2.68865 9.53678 2.57613 9.42426C2.4636 9.31174 2.40039 9.15912 2.40039 8.99999ZM10.3684 8.75999C10.1933 8.61413 9.98022 8.52115 9.75419 8.49194C9.52815 8.46273 9.29847 8.49849 9.09202 8.59505C8.88557 8.6916 8.71088 8.84495 8.5884 9.03716C8.46592 9.22937 8.4007 9.45248 8.40039 9.68039V20.6016C8.40039 21.7104 9.77439 22.2264 10.504 21.3924L12.9352 18.6132C13.1043 18.4204 13.3127 18.2659 13.5463 18.1601C13.78 18.0544 14.0335 17.9998 14.29 18H18.1432C19.2652 18 19.774 16.596 18.9112 15.8784L10.3684 8.75879V8.75999ZM9.60039 20.604V9.68039L18.1432 16.8H14.29C13.8623 16.7999 13.4394 16.8913 13.0499 17.0681C12.6604 17.2448 12.3132 17.5028 12.0316 17.8248L9.60039 20.6028V20.604Z" fill="white"/>
</svg>
