<svg width="24" height="24" viewBox="0 0 24 24" fill="none" xmlns="http://www.w3.org/2000/svg">
<g clip-path="url(#clip0_949_2925)">
<path d="M20.0625 1.92187C19.71 1.48124 19.71 0.76874 20.0625 0.332803C20.415 -0.103135 20.985 -0.107822 21.3337 0.332803L23.7337 3.3328C23.9025 3.54374 23.9963 3.82968 23.9963 4.12968C23.9963 4.42968 23.9025 4.71562 23.7337 4.92655L21.3337 7.92655C20.9812 8.36718 20.4112 8.36718 20.0625 7.92655C19.7137 7.48593 19.71 6.77343 20.0625 6.33749L20.925 5.25937L14.4 5.24999C13.9012 5.24999 13.5 4.74843 13.5 4.12499C13.5 3.50155 13.9012 2.99999 14.4 2.99999H20.9287L20.0625 1.92187ZM3.9375 17.6719L3.075 18.75H9.6C10.0987 18.75 10.5 19.2516 10.5 19.875C10.5 20.4984 10.0987 21 9.6 21H3.07125L3.93375 22.0781C4.28625 22.5187 4.28625 23.2312 3.93375 23.6672C3.58125 24.1031 3.01125 24.1078 2.6625 23.6672L0.2625 20.6719C0.09375 20.4609 0 20.175 0 19.875C0 19.575 0.09375 19.2891 0.2625 19.0781L2.6625 16.0781C3.015 15.6375 3.585 15.6375 3.93375 16.0781C4.2825 16.5187 4.28625 17.2312 3.93375 17.6672L3.9375 17.6719ZM3.6 2.99999H12.6712C12.5325 3.33749 12.45 3.71718 12.45 4.12499C12.45 5.4703 13.3237 6.56249 14.4 6.56249H18.8025C18.6525 7.35937 18.825 8.22655 19.32 8.84999C20.0812 9.80155 21.315 9.80155 22.0763 8.84999L22.8 7.9453V18C22.8 19.6547 21.7237 21 20.4 21H11.3287C11.4675 20.6625 11.55 20.2828 11.55 19.875C11.55 18.5297 10.6762 17.4375 9.6 17.4375H5.1975C5.3475 16.6406 5.175 15.7734 4.68 15.15C3.91875 14.1984 2.685 14.1984 1.92375 15.15L1.2 16.0547V5.99999C1.2 4.3453 2.27625 2.99999 3.6 2.99999ZM6 5.99999H3.6V8.99999C4.92375 8.99999 6 7.65468 6 5.99999ZM20.4 15C19.0762 15 18 16.3453 18 18H20.4V15ZM12 16.5C13.9875 16.5 15.6 14.4844 15.6 12C15.6 9.51562 13.9875 7.49999 12 7.49999C10.0125 7.49999 8.4 9.51562 8.4 12C8.4 14.4844 10.0125 16.5 12 16.5Z" fill="white"/>
</g>
<defs>
<clipPath id="clip0_949_2925">
<rect width="24" height="24" fill="white"/>
</clipPath>
</defs>
</svg>
