<svg width="36" height="36" viewBox="0 0 36 36" fill="none" xmlns="http://www.w3.org/2000/svg">
<path d="M21.2633 6.33337C21.2649 4.49168 17.5096 3 12.8825 3C8.25535 3 4.50335 4.49335 4.5 6.33337M4.5 6.33337C4.5 8.17505 8.252 9.66674 12.8825 9.66674C17.513 9.66674 21.2649 8.17505 21.2649 6.33337L21.265 19.2667M4.5 6.33337V26.3335C4.50168 28.1751 8.25367 29.6668 12.8825 29.6668C15.1273 29.6668 17.1542 29.3118 18.658 28.7402M4.50168 13.0001C4.50168 14.8418 8.25368 16.3334 12.8842 16.3334C17.5146 16.3334 21.2666 14.8418 21.2666 13.0001M18.7586 22.0419C17.2464 22.6336 15.1726 23.0003 12.8825 23.0003C8.25367 23.0003 4.50168 21.5086 4.50168 19.6669M30.7908 20.197C33.7364 23.1253 33.7364 27.8754 30.7908 30.8037C27.8452 33.7321 23.0672 33.7321 20.1216 30.8037C17.176 27.8754 17.176 23.1253 20.1216 20.197C23.0672 17.2686 27.8452 17.2686 30.7908 20.197Z" stroke="#101828" stroke-width="2" stroke-linecap="round" stroke-linejoin="round"/>
</svg>
