<svg width="12" height="12" viewBox="0 0 12 12" fill="none" xmlns="http://www.w3.org/2000/svg">
<path d="M6.4287 0C6.66546 0 6.8574 0.19401 6.8574 0.433333V9.114L10.6643 5.25733C10.7448 5.1753 10.8543 5.12915 10.9686 5.12915C11.0829 5.12915 11.1925 5.1753 11.273 5.25733L11.8732 5.87267C11.9544 5.95403 12 6.06479 12 6.18033C12 6.29588 11.9544 6.40663 11.8732 6.488L6.61733 11.8093C6.49685 11.9313 6.3334 11.9998 6.16291 12H5.83709C5.66697 11.998 5.50418 11.9297 5.38267 11.8093L0.126809 6.488C0.0456504 6.40663 0 6.29588 0 6.18033C0 6.06479 0.0456504 5.95403 0.126809 5.87267L0.735563 5.25733C0.814584 5.17581 0.922742 5.12987 1.03565 5.12987C1.14856 5.12987 1.25672 5.17581 1.33574 5.25733L5.1426 9.114V0.433333C5.1426 0.19401 5.33454 0 5.5713 0H6.4287Z" fill="black"/>
</svg>
