<svg width="32" height="33" viewBox="0 0 32 33" fill="none" xmlns="http://www.w3.org/2000/svg">
<g clip-path="url(#clip0_242_3818)">
<path d="M16.0007 29.8333C17.4673 29.8333 18.6673 28.6333 18.6673 27.1667H13.334C13.334 28.6333 14.534 29.8333 16.0007 29.8333ZM24.0007 21.8333V15.1667C24.0007 11.0733 21.8273 7.64666 18.0007 6.73999V5.83333C18.0007 4.72666 17.1073 3.83333 16.0007 3.83333C14.894 3.83333 14.0007 4.72666 14.0007 5.83333V6.73999C10.1873 7.64666 8.00065 11.06 8.00065 15.1667V21.8333L5.33398 24.5V25.8333H26.6673V24.5L24.0007 21.8333ZM21.334 23.1667H10.6673V15.1667C10.6673 11.86 12.6807 9.16666 16.0007 9.16666C19.3207 9.16666 21.334 11.86 21.334 15.1667V23.1667Z" fill="#323232"/>
</g>
<defs>
<clipPath id="clip0_242_3818">
<rect width="32" height="32" fill="white" transform="translate(0 0.5)"/>
</clipPath>
</defs>
</svg>
