<svg width="30" height="30" viewBox="0 0 30 30" fill="none" xmlns="http://www.w3.org/2000/svg">
<path d="M25.7102 16.41C25.7702 15.96 25.8002 15.495 25.8002 15C25.8002 14.52 25.7702 14.04 25.6952 13.59L28.7402 11.22C29.0102 11.01 29.0852 10.605 28.9202 10.305L26.0402 5.32498C25.8602 4.99498 25.4852 4.88998 25.1552 4.99498L21.5702 6.43498C20.8202 5.86498 20.0252 5.38498 19.1402 5.02498L18.6002 1.21498C18.5402 0.854975 18.2402 0.599976 17.8802 0.599976H12.1202C11.7602 0.599976 11.4752 0.854975 11.4152 1.21498L10.8752 5.02498C9.99016 5.38498 9.18016 5.87998 8.44516 6.43498L4.86016 4.99498C4.53016 4.87498 4.15516 4.99498 3.97516 5.32498L1.11016 10.305C0.930165 10.62 0.990164 11.01 1.29016 11.22L4.33516 13.59C4.26016 14.04 4.20016 14.535 4.20016 15C4.20016 15.465 4.23016 15.96 4.30516 16.41L1.26016 18.78C0.990164 18.99 0.915165 19.395 1.08016 19.695L3.96016 24.675C4.14016 25.005 4.51516 25.11 4.84516 25.005L8.43016 23.565C9.18016 24.135 9.97516 24.615 10.8602 24.975L11.4002 28.785C11.4752 29.145 11.7602 29.4 12.1202 29.4H17.8802C18.2402 29.4 18.5402 29.145 18.5852 28.785L19.1252 24.975C20.0102 24.615 20.8202 24.135 21.5552 23.565L25.1402 25.005C25.4702 25.125 25.8452 25.005 26.0252 24.675L28.9052 19.695C29.0852 19.365 29.0102 18.99 28.7252 18.78L25.7102 16.41ZM15.0002 20.4C12.0302 20.4 9.60016 17.97 9.60016 15C9.60016 12.03 12.0302 9.59997 15.0002 9.59997C17.9702 9.59997 20.4002 12.03 20.4002 15C20.4002 17.97 17.9702 20.4 15.0002 20.4Z" fill="#323232"/>
</svg>
