<svg width="36" height="36" viewBox="0 0 36 36" fill="none" xmlns="http://www.w3.org/2000/svg">
<path d="M6.33258 29.667C7.02839 30.3638 7.85503 30.9163 8.765 31.2926C9.67498 31.6689 10.6503 31.8618 11.6351 31.86C12.62 31.8617 13.5956 31.6689 14.5058 31.2925C15.416 30.9162 16.2429 30.3638 16.9391 29.667L21.1811 25.4235L19.0601 23.3025L14.8181 27.546C13.9728 28.3875 12.8286 28.86 11.6358 28.86C10.4431 28.86 9.29887 28.3875 8.45358 27.546C7.61133 26.7011 7.13839 25.5568 7.13839 24.3638C7.13839 23.1708 7.61133 22.0264 8.45358 21.1815L12.6971 16.9395L10.5761 14.8185L6.33258 19.0605C4.92829 20.4682 4.13965 22.3754 4.13965 24.3638C4.13965 26.3521 4.92829 28.2593 6.33258 29.667ZM29.6666 16.9395C31.0701 15.5314 31.8583 13.6244 31.8583 11.6363C31.8583 9.64813 31.0701 7.74108 29.6666 6.333C28.2589 4.92871 26.3517 4.14008 24.3633 4.14008C22.375 4.14008 20.4678 4.92871 19.0601 6.333L14.8181 10.5765L16.9391 12.6975L21.1811 8.454C22.0264 7.61249 23.1706 7.14005 24.3633 7.14005C25.5561 7.14005 26.7003 7.61249 27.5456 8.454C28.3878 9.29891 28.8608 10.4433 28.8608 11.6363C28.8608 12.8293 28.3878 13.9736 27.5456 14.8185L23.3021 19.0605L25.4231 21.1815L29.6666 16.9395Z" fill="black"/>
<path d="M12.6957 25.425L10.5732 23.304L23.3037 10.575L25.4247 12.6975L12.6957 25.425Z" fill="black"/>
</svg>
